<mxfile host="app.diagrams.net" agent="Mozilla/5.0 (Windows NT 10.0; Win64; x64) AppleWebKit/537.36 (KHTML, like Gecko) Chrome/127.0.0.0 Safari/537.36" version="24.7.6">
  <diagram name="Page-1" id="9LOCVyr0_nijj8VtArk6">
    <mxGraphModel dx="1500" dy="1982" grid="1" gridSize="10" guides="1" tooltips="1" connect="1" arrows="1" fold="1" page="1" pageScale="1" pageWidth="827" pageHeight="1169" math="0" shadow="0">
      <root>
        <mxCell id="0" />
        <mxCell id="1" parent="0" />
        <mxCell id="fX1FET32L2UqNWFqHVeL-8" value="" style="rounded=0;whiteSpace=wrap;html=1;" parent="1" vertex="1">
          <mxGeometry x="50" y="-70" width="1140" height="600" as="geometry" />
        </mxCell>
        <mxCell id="fI8hSi2GBOmGTAc_TbMu-33" value="" style="endArrow=none;dashed=1;html=1;dashPattern=1 3;strokeWidth=2;rounded=0;entryX=0.5;entryY=1;entryDx=0;entryDy=0;" parent="1" target="fI8hSi2GBOmGTAc_TbMu-1" edge="1">
          <mxGeometry width="50" height="50" relative="1" as="geometry">
            <mxPoint x="627" y="490" as="sourcePoint" />
            <mxPoint x="195" y="87" as="targetPoint" />
          </mxGeometry>
        </mxCell>
        <mxCell id="fI8hSi2GBOmGTAc_TbMu-32" value="" style="endArrow=none;dashed=1;html=1;dashPattern=1 3;strokeWidth=2;rounded=0;entryX=0.5;entryY=1;entryDx=0;entryDy=0;" parent="1" target="fI8hSi2GBOmGTAc_TbMu-2" edge="1">
          <mxGeometry width="50" height="50" relative="1" as="geometry">
            <mxPoint x="185" y="490" as="sourcePoint" />
            <mxPoint x="420" y="267" as="targetPoint" />
          </mxGeometry>
        </mxCell>
        <mxCell id="fI8hSi2GBOmGTAc_TbMu-1" value="&lt;b&gt;&lt;font style=&quot;font-size: 14px;&quot;&gt;System&lt;/font&gt;&lt;/b&gt;" style="html=1;whiteSpace=wrap;fillColor=#ffe6cc;strokeColor=#d79b00;" parent="1" vertex="1">
          <mxGeometry x="572" y="4" width="110" height="50" as="geometry" />
        </mxCell>
        <mxCell id="fI8hSi2GBOmGTAc_TbMu-2" value="&lt;font size=&quot;1&quot; face=&quot;Helvetica&quot;&gt;&lt;b style=&quot;font-size: 14px;&quot;&gt;Admin&lt;/b&gt;&lt;/font&gt;" style="html=1;whiteSpace=wrap;fillColor=#ffe6cc;strokeColor=#d79b00;" parent="1" vertex="1">
          <mxGeometry x="130" y="3" width="110" height="50" as="geometry" />
        </mxCell>
        <mxCell id="fI8hSi2GBOmGTAc_TbMu-4" value="" style="html=1;points=[[0,0,0,0,5],[0,1,0,0,-5],[1,0,0,0,5],[1,1,0,0,-5]];perimeter=orthogonalPerimeter;outlineConnect=0;targetShapes=umlLifeline;portConstraint=eastwest;newEdgeStyle={&quot;curved&quot;:0,&quot;rounded&quot;:0};fillColor=#fff2cc;strokeColor=#d6b656;" parent="1" vertex="1">
          <mxGeometry x="177" y="150" width="15" height="70" as="geometry" />
        </mxCell>
        <mxCell id="fI8hSi2GBOmGTAc_TbMu-5" value="" style="html=1;points=[[0,0,0,0,5],[0,1,0,0,-5],[1,0,0,0,5],[1,1,0,0,-5]];perimeter=orthogonalPerimeter;outlineConnect=0;targetShapes=umlLifeline;portConstraint=eastwest;newEdgeStyle={&quot;curved&quot;:0,&quot;rounded&quot;:0};fillColor=#fff2cc;strokeColor=#d6b656;" parent="1" vertex="1">
          <mxGeometry x="619" y="87" width="15" height="373" as="geometry" />
        </mxCell>
        <mxCell id="fI8hSi2GBOmGTAc_TbMu-6" value="" style="endArrow=classic;html=1;rounded=0;" parent="1" edge="1">
          <mxGeometry width="50" height="50" relative="1" as="geometry">
            <mxPoint x="634" y="137" as="sourcePoint" />
            <mxPoint x="1059" y="137" as="targetPoint" />
          </mxGeometry>
        </mxCell>
        <mxCell id="fI8hSi2GBOmGTAc_TbMu-9" value="&lt;b&gt;&lt;font style=&quot;font-size: 13px;&quot;&gt;Request qualification documents / certifications&lt;/font&gt;&lt;/b&gt;" style="edgeLabel;html=1;align=center;verticalAlign=middle;resizable=0;points=[];" parent="fI8hSi2GBOmGTAc_TbMu-6" vertex="1" connectable="0">
          <mxGeometry x="-0.0729" relative="1" as="geometry">
            <mxPoint y="-10" as="offset" />
          </mxGeometry>
        </mxCell>
        <mxCell id="fI8hSi2GBOmGTAc_TbMu-10" value="" style="endArrow=classic;html=1;rounded=0;" parent="1" edge="1">
          <mxGeometry width="50" height="50" relative="1" as="geometry">
            <mxPoint x="192" y="200" as="sourcePoint" />
            <mxPoint x="617" y="200" as="targetPoint" />
          </mxGeometry>
        </mxCell>
        <mxCell id="fI8hSi2GBOmGTAc_TbMu-11" value="&lt;b&gt;&lt;font style=&quot;font-size: 13px;&quot;&gt;Verify provided documents&lt;/font&gt;&lt;/b&gt;" style="edgeLabel;html=1;align=center;verticalAlign=middle;resizable=0;points=[];" parent="fI8hSi2GBOmGTAc_TbMu-10" vertex="1" connectable="0">
          <mxGeometry x="-0.0729" relative="1" as="geometry">
            <mxPoint y="-10" as="offset" />
          </mxGeometry>
        </mxCell>
        <mxCell id="fI8hSi2GBOmGTAc_TbMu-12" value="" style="endArrow=classic;html=1;rounded=0;dashed=1;" parent="1" target="fI8hSi2GBOmGTAc_TbMu-4" edge="1">
          <mxGeometry width="50" height="50" relative="1" as="geometry">
            <mxPoint x="1059" y="170" as="sourcePoint" />
            <mxPoint x="634" y="170" as="targetPoint" />
          </mxGeometry>
        </mxCell>
        <mxCell id="fI8hSi2GBOmGTAc_TbMu-13" value="&lt;b&gt;&lt;font style=&quot;font-size: 13px;&quot;&gt;Submit required documents&lt;/font&gt;&lt;/b&gt;" style="edgeLabel;html=1;align=center;verticalAlign=middle;resizable=0;points=[];" parent="fI8hSi2GBOmGTAc_TbMu-12" vertex="1" connectable="0">
          <mxGeometry x="-0.0729" relative="1" as="geometry">
            <mxPoint x="21" y="-11" as="offset" />
          </mxGeometry>
        </mxCell>
        <mxCell id="fI8hSi2GBOmGTAc_TbMu-16" value="alt" style="shape=umlFrame;whiteSpace=wrap;html=1;pointerEvents=0;width=28;height=15;fillColor=#dae8fc;strokeColor=#6c8ebf;" parent="1" vertex="1">
          <mxGeometry x="540" y="237" width="590" height="143" as="geometry" />
        </mxCell>
        <mxCell id="fI8hSi2GBOmGTAc_TbMu-17" value="&lt;b&gt;&lt;font style=&quot;font-size: 13px;&quot;&gt;if verified&lt;/font&gt;&lt;/b&gt;" style="text;html=1;align=center;verticalAlign=middle;resizable=0;points=[];autosize=1;strokeColor=none;fillColor=none;" parent="1" vertex="1">
          <mxGeometry x="538" y="258.5" width="80" height="30" as="geometry" />
        </mxCell>
        <mxCell id="fI8hSi2GBOmGTAc_TbMu-18" value="" style="endArrow=classic;html=1;rounded=0;" parent="1" edge="1">
          <mxGeometry width="50" height="50" relative="1" as="geometry">
            <mxPoint x="639" y="291" as="sourcePoint" />
            <mxPoint x="1059" y="291" as="targetPoint" />
          </mxGeometry>
        </mxCell>
        <mxCell id="fI8hSi2GBOmGTAc_TbMu-19" value="&lt;b&gt;&lt;font style=&quot;font-size: 13px;&quot;&gt;Account is verified&lt;/font&gt;&lt;/b&gt;" style="edgeLabel;html=1;align=center;verticalAlign=middle;resizable=0;points=[];" parent="fI8hSi2GBOmGTAc_TbMu-18" vertex="1" connectable="0">
          <mxGeometry x="-0.0729" relative="1" as="geometry">
            <mxPoint y="-10" as="offset" />
          </mxGeometry>
        </mxCell>
        <mxCell id="fI8hSi2GBOmGTAc_TbMu-24" value="" style="endArrow=classic;html=1;rounded=0;" parent="1" edge="1">
          <mxGeometry width="50" height="50" relative="1" as="geometry">
            <mxPoint x="635" y="410" as="sourcePoint" />
            <mxPoint x="1060" y="410" as="targetPoint" />
          </mxGeometry>
        </mxCell>
        <mxCell id="fI8hSi2GBOmGTAc_TbMu-25" value="&lt;span style=&quot;font-size: 13px;&quot;&gt;&lt;b&gt;Display dashboard&lt;/b&gt;&lt;/span&gt;" style="edgeLabel;html=1;align=center;verticalAlign=middle;resizable=0;points=[];" parent="fI8hSi2GBOmGTAc_TbMu-24" vertex="1" connectable="0">
          <mxGeometry x="-0.0729" relative="1" as="geometry">
            <mxPoint y="-10" as="offset" />
          </mxGeometry>
        </mxCell>
        <mxCell id="fI8hSi2GBOmGTAc_TbMu-27" value="&lt;b&gt;&lt;font style=&quot;font-size: 13px;&quot;&gt;if not verified&lt;/font&gt;&lt;/b&gt;" style="text;html=1;align=center;verticalAlign=middle;resizable=0;points=[];autosize=1;strokeColor=none;fillColor=none;" parent="1" vertex="1">
          <mxGeometry x="530" y="318" width="110" height="30" as="geometry" />
        </mxCell>
        <mxCell id="fI8hSi2GBOmGTAc_TbMu-28" value="" style="endArrow=classic;html=1;rounded=0;" parent="1" edge="1">
          <mxGeometry width="50" height="50" relative="1" as="geometry">
            <mxPoint x="639" y="353" as="sourcePoint" />
            <mxPoint x="1059" y="353" as="targetPoint" />
          </mxGeometry>
        </mxCell>
        <mxCell id="fI8hSi2GBOmGTAc_TbMu-29" value="&lt;b&gt;&lt;font style=&quot;font-size: 13px;&quot;&gt;Account cannot be verified&lt;/font&gt;&lt;/b&gt;" style="edgeLabel;html=1;align=center;verticalAlign=middle;resizable=0;points=[];" parent="fI8hSi2GBOmGTAc_TbMu-28" vertex="1" connectable="0">
          <mxGeometry x="-0.0729" relative="1" as="geometry">
            <mxPoint y="-10" as="offset" />
          </mxGeometry>
        </mxCell>
        <mxCell id="fI8hSi2GBOmGTAc_TbMu-34" value="&lt;b&gt;&lt;font style=&quot;font-size: 16px;&quot;&gt;Sequence diagram for admin verification&lt;/font&gt;&lt;/b&gt;" style="text;html=1;align=center;verticalAlign=middle;resizable=0;points=[];autosize=1;strokeColor=none;fillColor=none;" parent="1" vertex="1">
          <mxGeometry x="462" y="-52" width="330" height="30" as="geometry" />
        </mxCell>
        <mxCell id="fX1FET32L2UqNWFqHVeL-1" value="" style="endArrow=none;dashed=1;html=1;dashPattern=1 3;strokeWidth=2;rounded=0;entryX=0.5;entryY=1;entryDx=0;entryDy=0;" parent="1" edge="1">
          <mxGeometry width="50" height="50" relative="1" as="geometry">
            <mxPoint x="1068" y="490" as="sourcePoint" />
            <mxPoint x="1067.5" y="71" as="targetPoint" />
          </mxGeometry>
        </mxCell>
        <mxCell id="fX1FET32L2UqNWFqHVeL-2" value="&lt;b&gt;&lt;font style=&quot;font-size: 14px;&quot;&gt;Service_Provider&lt;/font&gt;&lt;/b&gt;" style="html=1;whiteSpace=wrap;fillColor=#ffe6cc;strokeColor=#d79b00;" parent="1" vertex="1">
          <mxGeometry x="1006" y="7" width="123" height="50" as="geometry" />
        </mxCell>
        <mxCell id="fX1FET32L2UqNWFqHVeL-3" value="" style="html=1;points=[[0,0,0,0,5],[0,1,0,0,-5],[1,0,0,0,5],[1,1,0,0,-5]];perimeter=orthogonalPerimeter;outlineConnect=0;targetShapes=umlLifeline;portConstraint=eastwest;newEdgeStyle={&quot;curved&quot;:0,&quot;rounded&quot;:0};fillColor=#fff2cc;strokeColor=#d6b656;" parent="1" vertex="1">
          <mxGeometry x="1060" y="89" width="15" height="371" as="geometry" />
        </mxCell>
        <mxCell id="fX1FET32L2UqNWFqHVeL-6" value="" style="endArrow=none;dashed=1;html=1;dashPattern=1 3;strokeWidth=2;rounded=0;entryX=1.005;entryY=0.587;entryDx=0;entryDy=0;entryPerimeter=0;" parent="1" edge="1">
          <mxGeometry width="50" height="50" relative="1" as="geometry">
            <mxPoint x="540" y="311" as="sourcePoint" />
            <mxPoint x="1135.1899999999996" y="310.9409999999998" as="targetPoint" />
          </mxGeometry>
        </mxCell>
      </root>
    </mxGraphModel>
  </diagram>
</mxfile>
